# xmcd
#
# Track frame offsets:
#	183
#	12790
#	25340
#	34440
#	45298
#	59598
#	70915
#	81105
#	94720
#	106548
#
# Disc length: 1617 seconds
#
# Revision: 5
# Processed by: cddbd v1.5.2PL0 Copyright (c) Steve Scherf et al.
# Submitted via: EasyCDDAExtractor 15.3.0.1
#
DISCID=74064f0a
DTITLE=Ednita Nazario - Me Esta Gustando
DYEAR=1976
DGENRE=Latin
TTITLE0=Me Esta Gustando
TTITLE1=Dime
TTITLE2=Vengo De Regreso
TTITLE3=Nunca Mas
TTITLE4=Esclava Y Ama
TTITLE5=Amigos
TTITLE6=Que Esperas
TTITLE7=Cua Cuaracua Cua (Vou Deitar E Rolar)
TTITLE8=No Soy Igual
TTITLE9=Te Vas
EXTD=
EXTT0=
EXTT1=
EXTT2=
EXTT3=
EXTT4=
EXTT5=
EXTT6=
EXTT7=
EXTT8=
EXTT9=
PLAYORDER=
